HIERARCHY
ROOT pelvis
{
  OFFSET 0 100 0
  CHANNELS 6 Xposition Yposition Zposition Zrotation Xrotation Yrotation
  JOINT pelvis_right_femur
  {
    OFFSET -10.78128 -3.44521 -0.5502486
    CHANNELS 3 Zrotation Xrotation Yrotation
    JOINT right_femur_tibia
    {
      OFFSET -0.8047443 -44.0398 -0.1307829
      CHANNELS 3 Zrotation Xrotation Yrotation
      JOINT right_tibia_foot
      {
        OFFSET 3.006224 -47.83518 -5
        CHANNELS 3 Zrotation Xrotation Yrotation
        End Site
        {
          OFFSET 0 -5 15
        }
      }
    }
  }
  JOINT pelvis_left_femur
  {
    OFFSET 10.78128 -3.44521 -0.5502486
    CHANNELS 3 Zrotation Xrotation Yrotation
    JOINT left_femur_tibia
    {
      OFFSET 0.8047443 -44.0398 -0.1307829
      CHANNELS 3 Zrotation Xrotation Yrotation
      JOINT left_tibia_foot
      {
        OFFSET -4.370144 -48.10324 -4.275266
        CHANNELS 3 Zrotation Xrotation Yrotation
        End Site
        {
          OFFSET 0 -5 15
        }
      }
    }
  }
  JOINT pelvis_spine1
  {
    OFFSET 0 6.468898 -3.129235
    CHANNELS 3 Zrotation Xrotation Yrotation
    JOINT spine1
    {
      OFFSET 0 23.15396 4.99043
      CHANNELS 3 Zrotation Xrotation Yrotation
      JOINT spine2
      {
        OFFSET 0 20.79997 -5.064912
        CHANNELS 3 Zrotation Xrotation Yrotation
        JOINT neck
        {
          OFFSET 0 14.38658 9.616178
          CHANNELS 3 Zrotation Xrotation Yrotation
          End Site
          {
            OFFSET 0 20 0
          }
        }
      }
      JOINT right_manubrium
      {
        OFFSET -5.722621 16.35077 3.967754
        CHANNELS 3 Zrotation Xrotation Yrotation
        JOINT right_clavicle
        {
          OFFSET -13.16364 1.694482 -4.693211
          CHANNELS 3 Zrotation Xrotation Yrotation
          JOINT right_humerus
          {
            OFFSET -28.5034 -0.3100689 -2.792744
            CHANNELS 3 Zrotation Xrotation Yrotation
            JOINT right_radius
            {
              OFFSET -25.15693 0.02248979 -1.271978
              CHANNELS 3 Zrotation Xrotation Yrotation
              End Site
              {
                OFFSET -15 0 0
              }
            }
          }
        }
      }
      JOINT left_manubrium
      {
        OFFSET 5.722621 16.35077 3.967754
        CHANNELS 3 Zrotation Xrotation Yrotation
        JOINT left_clavicle
        {
          OFFSET 13.16364 1.694482 -4.693211
          CHANNELS 3 Zrotation Xrotation Yrotation
          JOINT left_humerus
          {
            OFFSET 29.39168 -1.063119 -2.237045
            CHANNELS 3 Zrotation Xrotation Yrotation
            JOINT left_radius
            {
              OFFSET 24.59957 -0.9528479 0.9047498
              CHANNELS 3 Zrotation Xrotation Yrotation
              End Site
              {
                OFFSET 15 -0 -0
              }
            }
          }
        }
      }
    }
  }
}
MOTION
Frames: 11
Frame Time: 0.0416666666667
208.1976 105.6486 3198.044 1.130893 -7.000582 2.177151 0.5430627 -19.23665 1.186361 -0 33.74861 -0 -0.7234071 0.5129994 -7.402049 -4.945249 9.228158 -7.687587 -0 13.94122 -0 -2.931818 -17.94266 14.24703 0.9172657 -3.420133 7.010646 0.5682116 12.27157 -6.756644 1.230646 17.79925 2.440793 -1.342665 -21.63965 5.788493 -4.838589 -29.02053 11.18259 93.14799 18.61402 -13.15236 -0 0 28.02335 -20.50981 15.2377 15.93608 1.471853 -19.60938 -3.308996 -92.58735 13.67607 36.93948 0 0 -17.22576 -3.176712 9.908081 17.77485
208.5481 104.725 3203.898 1.28256 -6.247031 2.759629 0.3384316 -23.12965 0.4165855 -0 24.05682 -0 -0.4529577 -0.3929181 -7.761054 -5.006644 12.49199 -7.420301 -0 14.08093 -0 -3.992027 -19.71149 13.28947 0.9182168 -3.419506 7.010965 0.5687874 12.27252 -6.757531 1.230339 17.79824 2.438732 -1.344111 -21.63878 5.78659 -4.838478 -29.02354 11.18305 93.14688 18.61656 -13.14849 -0 0 28.02577 -20.50691 15.23915 15.93706 1.469999 -19.60989 -3.30908 -92.58353 13.67083 36.94118 0 0 -17.2291 -3.172992 9.913207 17.77095
208.8002 103.5442 3210.151 1.518617 -5.418493 3.21455 0.2845412 -25.55083 0.05265335 -0 15.85306 -0 0.1439632 -0.5383715 -8.052746 -5.142399 15.10874 -7.145278 -0 15.69107 -0 -5.05645 -20.68986 12.47562 0.9189505 -3.419364 7.011629 0.5691284 12.27314 -6.757699 1.230038 17.79717 2.436544 -1.345788 -21.63748 5.784828 -4.838172 -29.02688 11.18334 93.14447 18.61806 -13.14352 -0 0 28.03061 -20.50495 15.24143 15.93924 1.468122 -19.60892 -3.308861 -92.58208 13.66619 36.94617 0 0 -17.22901 -3.170759 9.916978 17.76897
208.9524 102.3669 3216.859 1.692029 -4.763864 3.579763 0.6367791 -26.32819 0.3341776 -0 10.55966 -0 0.7587454 -0.08027464 -8.371177 -5.185352 17.05043 -6.918145 -0 18.98509 -0 -6.180561 -20.53209 11.90989 0.9194252 -3.419712 7.012594 0.5692147 12.27341 -6.757144 1.229763 17.79612 2.434366 -1.347588 -21.63585 5.783314 -4.837696 -29.03034 11.18347 93.14093 18.61841 -13.13777 -0 0 28.03755 -20.50406 15.24438 15.94247 1.466338 -19.60653 -3.308363 -92.58306 13.66243 36.95411 0 0 -17.22556 -3.170135 9.919174 17.769
208.9989 101.4714 3223.984 1.641778 -4.482104 3.845154 1.558949 -25.40549 1.367439 -0 8.904609 -0 1.088356 0.4562073 -8.739532 -4.938791 18.13002 -6.790678 -0 24.07647 -0 -7.438323 -19.011 11.64015 0.9196149 -3.420535 7.013814 0.5690306 12.27333 -6.75588 1.229534 17.79515 2.432321 -1.34941 -21.63397 5.782141 -4.837083 -29.03374 11.1834 93.13647 18.61757 -13.13156 -0 0 28.04619 -20.50431 15.24784 15.94657 1.464745 -19.60285 -3.307635 -92.58646 13.6598 36.96459 0 0 -17.2189 -3.171174 9.919637 17.77107
208.9472 101.0937 3231.375 1.287265 -4.644666 3.923316 2.967914 -22.95698 2.986625 -0 10.54927 -0 0.9349163 0.3590038 -9.06526 -4.319126 17.94464 -6.757132 -0 30.84355 -0 -8.619642 -16.16503 11.74937 0.9195091 -3.421805 7.015241 0.5685667 12.27292 -6.753938 1.229374 17.79432 2.430507 -1.351164 -21.63192 5.781383 -4.836378 -29.03691 11.18315 93.1313 18.61552 -13.12519 -0 0 28.05613 -20.50575 15.25164 15.95138 1.463419 -19.59805 -3.306743 -92.59219 13.65847 36.97713 0 0 -17.20929 -3.173868 9.918273 17.77517
208.8326 101.3393 3238.781 0.7389022 -5.224965 3.68951 4.464055 -19.33312 4.700185 -0 13.96081 -0 0.2414234 -0.8460373 -9.166819 -3.503945 16.00226 -6.759857 -0 38.82139 -0 -9.256297 -12.54311 12.3805 0.9191127 -3.423478 7.016828 0.5678229 12.27222 -6.75137 1.229299 17.79368 2.429004 -1.352775 -21.62978 5.781088 -4.835627 -29.03972 11.18269 93.12566 18.61228 -13.11893 -0 0 28.06694 -20.50836 15.25563 15.9567 1.462414 -19.59232 -3.305761 -92.60006 13.65855 36.99127 0 0 -17.19706 -3.178141 9.91507 17.78117
208.7071 102.1237 3245.929 0.3023873 -6.157115 3.103006 5.481598 -14.82289 5.865974 -0 17.00316 -0 -0.8555951 -3.001032 -8.858263 -2.885594 12.03855 -6.778554 -0 47.05383 -0 -9.154568 -9.223311 13.56865 0.9184452 -3.425489 7.01852 0.5668166 12.27126 -6.748261 1.229323 17.79329 2.427873 -1.354176 -21.62765 5.781277 -4.834877 -29.04207 11.18205 93.1198 18.60795 -13.11304 -0 0 28.07817 -20.51207 15.25963 15.96232 1.461765 -19.5859 -3.304762 -92.60978 13.66007 37.00642 0 0 -17.18271 -3.183827 9.91012 17.78887
208.6104 103.2041 3252.641 0.2776886 -7.271527 2.296792 5.663444 -9.603722 6.141969 -0 18.09013 -0 -1.896517 -5.364943 -8.079929 -2.729194 6.301973 -6.809276 -0 53.97637 -0 -8.760821 -7.249017 15.08414 0.9175408 -3.427739 7.020237 0.5655915 12.27012 -6.744756 1.229447 17.79315 2.427166 -1.355299 -21.62562 5.781945 -4.834174 -29.04384 11.18126 93.114 18.60272 -13.10781 -0 0 28.08927 -20.51672 15.26344 15.96797 1.461502 -19.57909 -3.303807 -92.6209 13.66298 37.02185 0 0 -17.16693 -3.190652 9.903649 17.79789
208.557 104.2796 3258.92 0.6761377 -8.247354 1.485646 5.187546 -4.032251 5.852959 -0 17.06357 -0 -2.227547 -7.193635 -7.01961 -2.808673 -0.4528457 -6.683106 -0 57.73008 -0 -8.64617 -6.819753 16.55469 0.9164482 -3.430092 7.02187 0.5642242 12.26884 -6.741071 1.229663 17.79329 2.42694 -1.356067 -21.62383 5.783059 -4.833559 -29.04491 11.18036 93.10864 18.59693 -13.10357 -0 0 28.09953 -20.52202 15.26682 15.97328 1.461652 -19.57231 -3.302942 -92.63274 13.6671 37.03662 0 0 -17.15066 -3.198211 9.896038 17.80768
208.5567 105.0841 3264.906 1.145082 -8.790302 0.7615332 4.627656 1.223258 5.615436 -0 15.03446 -0 -1.684772 -8.423573 -5.99431 -2.499587 -7.279435 -6.106948 -0 56.96457 -0 -8.731561 -7.180402 17.74734 0.9152304 -3.432375 7.023278 0.562823 12.26749 -6.73749 1.22995 17.79369 2.427252 -1.356396 -21.62244 5.78456 -4.833067 -29.04513 11.17942 93.10411 18.591 -13.10072 -0 0 28.10815 -20.52759 15.26948 15.97782 1.462243 -19.56607 -3.302199 -92.64443 13.67219 37.04952 0 0 -17.13512 -3.205976 9.887815 17.81753
